<svg width="118" height="118" viewBox="0 0 118 118" fill="none" xmlns="http://www.w3.org/2000/svg">
<circle cx="59" cy="59" r="59" fill="white"/>
<path d="M16.96 56.8V51.28L29.6 33.2H37.24V50.88H40.52V56.8H37.24V62H30.4V56.8H16.96ZM30.88 40.72L24.16 50.88H30.88V40.72ZM43.8703 47C43.8703 42.4133 44.7503 38.8 46.5103 36.16C48.297 33.52 51.1636 32.2 55.1103 32.2C59.057 32.2 61.9103 33.52 63.6703 36.16C65.457 38.8 66.3503 42.4133 66.3503 47C66.3503 51.64 65.457 55.28 63.6703 57.92C61.9103 60.56 59.057 61.88 55.1103 61.88C51.1636 61.88 48.297 60.56 46.5103 57.92C44.7503 55.28 43.8703 51.64 43.8703 47ZM59.6303 47C59.6303 44.3067 59.337 42.24 58.7503 40.8C58.1636 39.3333 56.9503 38.6 55.1103 38.6C53.2703 38.6 52.057 39.3333 51.4703 40.8C50.8836 42.24 50.5903 44.3067 50.5903 47C50.5903 48.8133 50.697 50.32 50.9103 51.52C51.1236 52.6933 51.5503 53.6533 52.1903 54.4C52.857 55.12 53.8303 55.48 55.1103 55.48C56.3903 55.48 57.3503 55.12 57.9903 54.4C58.657 53.6533 59.097 52.6933 59.3103 51.52C59.5236 50.32 59.6303 48.8133 59.6303 47ZM69.4041 40.16C69.4041 38 70.0174 36.3333 71.2441 35.16C72.4974 33.9867 74.1107 33.4 76.0841 33.4C78.0574 33.4 79.6574 33.9867 80.8841 35.16C82.1107 36.3333 82.7241 38 82.7241 40.16C82.7241 42.32 82.1107 43.9867 80.8841 45.16C79.6574 46.3333 78.0574 46.92 76.0841 46.92C74.1107 46.92 72.4974 46.3333 71.2441 45.16C70.0174 43.9867 69.4041 42.32 69.4041 40.16ZM96.5641 33.84L81.1641 62H74.5641L89.9641 33.84H96.5641ZM76.0441 37.4C74.7641 37.4 74.1241 38.32 74.1241 40.16C74.1241 41.9733 74.7641 42.88 76.0441 42.88C76.6574 42.88 77.1374 42.6533 77.4841 42.2C77.8307 41.7467 78.0041 41.0667 78.0041 40.16C78.0041 38.32 77.3507 37.4 76.0441 37.4ZM88.4441 55.68C88.4441 53.52 89.0574 51.8533 90.2841 50.68C91.5107 49.5067 93.1107 48.92 95.0841 48.92C97.0574 48.92 98.6574 49.5067 99.8841 50.68C101.111 51.8533 101.724 53.52 101.724 55.68C101.724 57.84 101.111 59.5067 99.8841 60.68C98.6574 61.8533 97.0574 62.44 95.0841 62.44C93.1107 62.44 91.5107 61.8533 90.2841 60.68C89.0574 59.5067 88.4441 57.84 88.4441 55.68ZM95.0441 52.92C94.4307 52.92 93.9507 53.1467 93.6041 53.6C93.2841 54.0533 93.1241 54.7467 93.1241 55.68C93.1241 57.4933 93.7641 58.4 95.0441 58.4C95.6574 58.4 96.1374 58.1733 96.4841 57.72C96.8307 57.2667 97.0041 56.5867 97.0041 55.68C97.0041 54.7733 96.8307 54.0933 96.4841 53.64C96.1374 53.16 95.6574 52.92 95.0441 52.92Z" fill="#ffcc00"/>
<path d="M47.88 92.14C46.56 92.14 45.3467 91.8333 44.24 91.22C43.1467 90.6067 42.2733 89.7533 41.62 88.66C40.98 87.5533 40.66 86.3133 40.66 84.94C40.66 83.5667 40.98 82.3333 41.62 81.24C42.2733 80.1467 43.1467 79.2933 44.24 78.68C45.3467 78.0667 46.56 77.76 47.88 77.76C49.2 77.76 50.4067 78.0667 51.5 78.68C52.6067 79.2933 53.4733 80.1467 54.1 81.24C54.74 82.3333 55.06 83.5667 55.06 84.94C55.06 86.3133 54.74 87.5533 54.1 88.66C53.46 89.7533 52.5933 90.6067 51.5 91.22C50.4067 91.8333 49.2 92.14 47.88 92.14ZM47.88 89.02C49 89.02 49.8933 88.6467 50.56 87.9C51.24 87.1533 51.58 86.1667 51.58 84.94C51.58 83.7 51.24 82.7133 50.56 81.98C49.8933 81.2333 49 80.86 47.88 80.86C46.7467 80.86 45.84 81.2267 45.16 81.96C44.4933 82.6933 44.16 83.6867 44.16 84.94C44.16 86.18 44.4933 87.1733 45.16 87.92C45.84 88.6533 46.7467 89.02 47.88 89.02ZM66.1027 77.96V80.7H60.3827V83.66H64.6627V86.32H60.3827V92H56.9627V77.96H66.1027ZM77.0402 77.96V80.7H71.3202V83.66H75.6002V86.32H71.3202V92H67.9002V77.96H77.0402Z" fill="#ffcc00"/>
</svg>
